<svg viewBox="0 0 680 400" xmlns="http://www.w3.org/2000/svg"
     style="font-family:-apple-system,system-ui,sans-serif;background:white;">
  <text x="340" y="22" text-anchor="middle" font-size="13" font-weight="600" fill="#222">
    Sleep GWAS Landscape: Known Genetic Loci by Trait
  </text>
  <text x="340" y="40" text-anchor="middle" font-size="10" fill="#666">
    GWAS Catalog (EBI) · all genome-wide significant associations per sleep trait · July 2026
  </text>
  <text x="340" y="56" text-anchor="middle" font-size="10" fill="#444">
    Insomnia dominates with 4,422 loci — yet most remain functionally uncharacterized
  </text>
  <text x="400" y="374" text-anchor="middle"
        font-size="10" fill="#555">Number of GWAS loci (genome-wide significant)</text>
  <line x1="220" y1="75" x2="220" y2="340" stroke="#ccc" stroke-width="1"/><line x1="220.0" y1="75" x2="220.0" y2="340" stroke="#eee" stroke-width="1"/><text x="220.0" y="356" text-anchor="middle" font-size="9" fill="#888">0</text><line x1="260.7" y1="75" x2="260.7" y2="340" stroke="#eee" stroke-width="1"/><text x="260.7" y="356" text-anchor="middle" font-size="9" fill="#888">500</text><line x1="301.4" y1="75" x2="301.4" y2="340" stroke="#eee" stroke-width="1"/><text x="301.4" y="356" text-anchor="middle" font-size="9" fill="#888">1,000</text><line x1="382.8" y1="75" x2="382.8" y2="340" stroke="#eee" stroke-width="1"/><text x="382.8" y="356" text-anchor="middle" font-size="9" fill="#888">2,000</text><line x1="464.2" y1="75" x2="464.2" y2="340" stroke="#eee" stroke-width="1"/><text x="464.2" y="356" text-anchor="middle" font-size="9" fill="#888">3,000</text><line x1="545.6" y1="75" x2="545.6" y2="340" stroke="#eee" stroke-width="1"/><text x="545.6" y="356" text-anchor="middle" font-size="9" fill="#888">4,000</text><rect x="220" y="75" width="360.0" height="26" fill="#c0392b" opacity="0.85" rx="2"/><text x="210" y="92.0" text-anchor="end" font-size="11" fill="#333" font-weight="600">Insomnia</text><text x="587.0" y="92.0" font-size="10" fill="#c0392b" font-weight="700">4,422</text><text x="590" y="92.0" font-size="9" fill="#999">47 studies</text><rect x="220" y="109" width="98.7" height="26" fill="#1a5c8a" opacity="0.85" rx="2"/><text x="210" y="126.0" text-anchor="end" font-size="11" fill="#333" font-weight="600">Chronotype</text><text x="325.7" y="126.0" font-size="10" fill="#1a5c8a" font-weight="700">1,212</text><text x="590" y="126.0" font-size="9" fill="#999">26 studies</text><rect x="220" y="143" width="78.3" height="26" fill="#27ae60" opacity="0.85" rx="2"/><text x="210" y="160.0" text-anchor="end" font-size="11" fill="#333" font-weight="600">Sleep Duration</text><text x="305.3" y="160.0" font-size="10" fill="#27ae60" font-weight="700">962</text><text x="590" y="160.0" font-size="9" fill="#999">47 studies</text><rect x="220" y="177" width="3.7" height="26" fill="#8e44ad" opacity="0.85" rx="2"/><text x="210" y="194.0" text-anchor="end" font-size="11" fill="#333" font-weight="600">Narcolepsy</text><text x="230.7" y="194.0" font-size="10" fill="#8e44ad" font-weight="700">46</text><text x="590" y="194.0" font-size="9" fill="#999">15 studies</text><rect x="220" y="211" width="1.6" height="26" fill="#e67e22" opacity="0.85" rx="2"/><text x="210" y="228.0" text-anchor="end" font-size="11" fill="#333" font-weight="600">Excessive Daytime Sleepiness</text><text x="228.6" y="228.0" font-size="10" fill="#e67e22" font-weight="700">20</text><text x="590" y="228.0" font-size="9" fill="#999">4 studies</text><rect x="220" y="245" width="1.1" height="26" fill="#16a085" opacity="0.85" rx="2"/><text x="210" y="262.0" text-anchor="end" font-size="11" fill="#333" font-weight="600">Sleep Quality</text><text x="228.1" y="262.0" font-size="10" fill="#16a085" font-weight="700">13</text><text x="590" y="262.0" font-size="9" fill="#999">6 studies</text><rect x="220" y="279" width="0.5" height="26" fill="#e67e22" opacity="0.85" rx="2"/><text x="210" y="296.0" text-anchor="end" font-size="11" fill="#333" font-weight="600">Hypersomnia</text><text x="227.5" y="296.0" font-size="10" fill="#e67e22" font-weight="700">6</text><text x="590" y="296.0" font-size="9" fill="#999">2 studies</text><rect x="220" y="313" width="0.1" height="26" fill="#7f8c8d" opacity="0.85" rx="2"/><text x="210" y="330.0" text-anchor="end" font-size="11" fill="#333" font-weight="600">Sleep Latency</text><text x="227.1" y="330.0" font-size="10" fill="#7f8c8d" font-weight="700">1</text><text x="590" y="330.0" font-size="9" fill="#999">2 studies</text>
</svg>